<svg xmlns="http://www.w3.org/2000/svg" fill="none" viewBox="0 0 32 32">
  <path fill="url(#a)" d="M0 0h32v32H0z" />
  <g filter="url(#b)">
    <path fill="#fff" d="M16 22h-4l-2-2a7 7 0 0 1-1-4v-3l1-2 2-2 3-1 4 1a5 5 0 0 1 3 5h-3a3 3 0 0 0-2-2l-2-1-1 1h-1l-1 2v3l1 1 1 1 2 1 2-1 1-2h3a6 6 0 0 1-3 5h-3Z" />
  </g>
  <defs>
    <linearGradient id="a" x1="0" x2="32" y1="16" y2="16" gradientUnits="userSpaceOnUse">
      <stop stop-color="#911812" />
      <stop offset="1" stop-color="#E1261C" />
    </linearGradient>
    <filter id="b" width="15.1" height="15.9" x="8.8" y="8.5" color-interpolation-filters="sRGB" filterUnits="userSpaceOnUse">
      <feFlood flood-opacity="0" result="BackgroundImageFix" />
      <feColorMatrix in="SourceAlpha" result="hardAlpha" values="0 0 0 0 0 0 0 0 0 0 0 0 0 0 0 0 0 0 127 0" />
      <feOffset dx="2" dy="2" />
      <feColorMatrix values="0 0 0 0 0 0 0 0 0 0 0 0 0 0 0 0 0 0 0.4 0" />
      <feBlend in2="BackgroundImageFix" result="effect" />
      <feBlend in="SourceGraphic" in2="effect" result="shape" />
    </filter>
  </defs>
</svg>